# xmcd CD database file
#
# Track frame offsets:
#	183
#	11335
#	23055
#	37595
#	46600
#	58735
#	70993
#	81413
#	91693
#	100978
#	113325
#	126550
#	137380
#	149120
#	159913
#	171625
#	180780
#	194555
#	207633
#	220468
#
# Disc length: 3091 seconds
#
# Revision: 0
# Processed by: cddbd v1.5.1PL0 Copyright (c) Steve Scherf et al.
# Submitted via: CDex 1.50beta10
#
DISCID=150c1114
DTITLE=Slim Whitman - The Collection CD 2
DYEAR=1989
DGENRE=Country
TTITLE0=Marie Elena
TTITLE1=Home (When Shadows Fall)
TTITLE2=The Song of the Waterwheel
TTITLE3=Ages and Ages Ago
TTITLE4=Each Night at Nine
TTITLE5=Smoke Signals
TTITLE6=Brams Lullaby
TTITLE7=I'll Never Stop Loving You
TTITLE8=Never
TTITLE9=Forty Shades of Green
TTITLE10=Among My Souvenirs
TTITLE11=Careless Love
TTITLE12=I Dreamed of an Old Love Affair
TTITLE13=A Travellin' Man
TTITLE14=From Heaven to Heartache
TTITLE15=Forever
TTITLE16=I Really Don't Want to Know
TTITLE17=I'll Hold You in My Heart
TTITLE18=Silver Threads Among the Gold
TTITLE19=Happy Anniversary
EXTD=YEAR: 1989
EXTT0=
EXTT1=
EXTT2=
EXTT3=
EXTT4=
EXTT5=
EXTT6=
EXTT7=
EXTT8=
EXTT9=
EXTT10=
EXTT11=
EXTT12=
EXTT13=
EXTT14=
EXTT15=
EXTT16=
EXTT17=
EXTT18=
EXTT19=
PLAYORDER=
